<?xml version="1.0"?>
<svg xmlns="http://www.w3.org/2000/svg" width="1800" height="980" viewBox="0 0 1800 980" role="img" aria-labelledby="title desc">
  <title id="title">Qwen-IR overall method</title>
  <desc id="desc">A structured degradation reasoning pipeline for all-in-one image restoration, with a validated global degradation branch and a planned layout-guided spatial expert branch.</desc>
  <defs>
    <linearGradient id="bg" x1="0" y1="0" x2="1" y2="1">
      <stop offset="0" stop-color="#f8fbff"/>
      <stop offset="1" stop-color="#f7f7ff"/>
    </linearGradient>
    <filter id="shadow" x="-20%" y="-20%" width="140%" height="140%">
      <feDropShadow dx="0" dy="5" stdDeviation="7" flood-color="#1e293b" flood-opacity="0.10"/>
    </filter>
    <marker id="arrow-blue" markerWidth="12" markerHeight="12" refX="10" refY="6" orient="auto">
      <path d="M0,0 L12,6 L0,12 Z" fill="#2563eb"/>
    </marker>
    <marker id="arrow-green" markerWidth="12" markerHeight="12" refX="10" refY="6" orient="auto">
      <path d="M0,0 L12,6 L0,12 Z" fill="#059669"/>
    </marker>
    <marker id="arrow-gray" markerWidth="12" markerHeight="12" refX="10" refY="6" orient="auto">
      <path d="M0,0 L12,6 L0,12 Z" fill="#64748b"/>
    </marker>
    <style>.title{font:700 34px Inter,"Noto Sans CJK SC","Microsoft YaHei",sans-serif;fill:#0f172a}.subtitle{font:400 17px Inter,"Noto Sans CJK SC","Microsoft YaHei",sans-serif;fill:#475569}.section{font:700 21px Inter,"Noto Sans CJK SC","Microsoft YaHei",sans-serif;fill:#0f172a}.box-title{font:700 17px Inter,"Noto Sans CJK SC","Microsoft YaHei",sans-serif;fill:#0f172a}.body{font:500 15px Inter,"Noto Sans CJK SC","Microsoft YaHei",sans-serif;fill:#334155}.small{font:500 13px Inter,"Noto Sans CJK SC","Microsoft YaHei",sans-serif;fill:#64748b}.tiny{font:600 12px Inter,"Noto Sans CJK SC","Microsoft YaHei",sans-serif}.arrow-label{font:600 13px Inter,"Noto Sans CJK SC","Microsoft YaHei",sans-serif;fill:#475569}.solid-arrow{fill:none;stroke:#2563eb;stroke-width:3;marker-end:url(#arrow-blue)}.spatial-arrow{fill:none;stroke:#059669;stroke-width:3;marker-end:url(#arrow-green)}.gray-arrow{fill:none;stroke:#64748b;stroke-width:2.5;marker-end:url(#arrow-gray)}.dash-arrow{fill:none;stroke:#059669;stroke-width:2.5;stroke-dasharray:9 7;marker-end:url(#arrow-green)}.panel{filter:url(#shadow);stroke-width:2}.inner{stroke-width:1.5}</style>
  </defs>
  <rect width="1800" height="980" fill="url(#bg)"/>
  <text x="60" y="58" class="title">Qwen-IR&#xFF1A;&#x9762;&#x5411; All-in-One &#x56FE;&#x50CF;&#x4FEE;&#x590D;&#x7684;&#x7ED3;&#x6784;&#x5316;&#x9000;&#x5316;&#x63A8;&#x7406;</text>
  <text x="60" y="88" class="subtitle">Qwen3-VL &#x8D1F;&#x8D23;&#x7406;&#x89E3;&#x9000;&#x5316;&#xFF0C;&#x8BED;&#x4E49;&#x6761;&#x4EF6;&#x56DE;&#x7B54;&#x201C;&#x4FEE;&#x4EC0;&#x4E48;&#x201D;&#xFF0C;layout &#x8DEF;&#x7531;&#x4E0E;&#x7A7A;&#x95F4;&#x4E13;&#x5BB6;&#x56DE;&#x7B54;&#x201C;&#x5728;&#x54EA;&#x91CC;&#x4FEE;&#x201D;</text>
  <rect x="45" y="370" width="190" height="220" rx="24" fill="#ffffff" stroke="#94a3b8" class="panel"/>
  <rect x="72" y="400" width="136" height="92" rx="14" fill="#e2e8f0"/>
  <path d="M84 472 L112 438 L132 458 L154 424 L196 472 Z" fill="#94a3b8"/>
  <circle cx="105" cy="424" r="10" fill="#f8fafc"/>
  <text x="140" y="525" text-anchor="middle" class="box-title">&#x8F93;&#x5165; LQ &#x56FE;&#x50CF;</text>
  <text x="140" y="551" text-anchor="middle" class="small">&#x5355;&#x4E00; / &#x590D;&#x5408;&#x9000;&#x5316;</text>
  <rect x="278" y="126" width="300" height="720" rx="26" fill="#eff6ff" stroke="#3b82f6" class="panel"/>
  <text x="428" y="165" text-anchor="middle" class="section">Qwen3-VL &#x9000;&#x5316;&#x7406;&#x89E3;</text>
  <rect x="315" y="198" width="226" height="82" rx="16" fill="#ffffff" stroke="#60a5fa" class="inner"/>
  <text x="428" y="229" text-anchor="middle" class="box-title">&#x89C6;&#x89C9;&#x8BED;&#x8A00;&#x63A8;&#x7406;</text>
  <text x="428" y="254" text-anchor="middle" class="small">&#x7ED3;&#x6784;&#x5316; JSON &#x8F93;&#x51FA;</text>
  <rect x="315" y="313" width="226" height="92" rx="14" fill="#dbeafe" stroke="#60a5fa" class="inner"/>
  <text x="428" y="344" text-anchor="middle" class="box-title">main logits / probs</text>
  <text x="428" y="371" text-anchor="middle" class="small">noise &#xB7; blur &#xB7; haze</text>
  <text x="428" y="392" text-anchor="middle" class="small">rain &#xB7; low-light</text>
  <rect x="315" y="427" width="226" height="76" rx="14" fill="#dbeafe" stroke="#60a5fa" class="inner"/>
  <text x="428" y="458" text-anchor="middle" class="box-title">severity_5</text>
  <text x="428" y="484" text-anchor="middle" class="small">none &#x2192; severe</text>
  <rect x="315" y="525" width="226" height="76" rx="14" fill="#fef3c7" stroke="#f59e0b" class="inner"/>
  <text x="428" y="556" text-anchor="middle" class="box-title">calibrated confidence</text>
  <text x="428" y="582" text-anchor="middle" class="small">&#x53EF;&#x9760;&#x6027;&#x4E0E;&#x98CE;&#x9669;&#x4F30;&#x8BA1;</text>
  <rect x="315" y="623" width="226" height="176" rx="14" fill="#d1fae5" stroke="#10b981" class="inner"/>
  <text x="428" y="654" text-anchor="middle" class="box-title">layout_10</text>
  <text x="428" y="681" text-anchor="middle" class="small">global &#xB7; local &#xB7; object</text>
  <text x="428" y="704" text-anchor="middle" class="small">continuous &#xB7; discrete</text>
  <text x="428" y="727" text-anchor="middle" class="small">directional &#xB7; depth</text>
  <text x="428" y="750" text-anchor="middle" class="small">shadow &#xB7; texture</text>
  <text x="428" y="773" text-anchor="middle" class="small">uncertain</text>
  <path d="M235 480 H278" class="gray-arrow"/>
  <path d="M428 280 V313" class="solid-arrow"/>
  <rect x="628" y="112" width="382" height="350" rx="26" fill="#fff7ed" stroke="#f97316" class="panel"/>
  <text x="819" y="151" text-anchor="middle" class="section">&#x5168;&#x5C40;&#x9000;&#x5316;&#x8BED;&#x4E49;&#x5206;&#x652F;</text>
  <rect x="667" y="182" width="304" height="58" rx="14" fill="#ffffff" stroke="#fb923c" class="inner"/>
  <text x="819" y="218" text-anchor="middle" class="box-title">Temperature Calibration</text>
  <rect x="667" y="260" width="304" height="70" rx="14" fill="#ffedd5" stroke="#fb923c" class="inner"/>
  <text x="819" y="289" text-anchor="middle" class="box-title">[ severity_5 , probabilities_5 ]</text>
  <text x="819" y="314" text-anchor="middle" class="small">10D degradation descriptor</text>
  <rect x="667" y="350" width="304" height="76" rx="14" fill="#ffffff" stroke="#fb923c" class="inner"/>
  <text x="819" y="381" text-anchor="middle" class="box-title">Degradation Encoder</text>
  <text x="819" y="407" text-anchor="middle" class="small">10D &#x2192; deg_context [512]</text>
  <rect x="896" y="126" width="91" height="28" rx="14" fill="#2563eb"/>
  <text x="941" y="145" text-anchor="middle" class="tiny" fill="#ffffff">A3 &#x5DF2;&#x9A8C;&#x8BC1;</text>
  <path d="M541 358 H602 V211 H667" class="solid-arrow"/>
  <path d="M541 465 H620 V295 H667" class="solid-arrow"/>
  <path d="M819 240 V260" class="solid-arrow"/>
  <path d="M819 330 V350" class="solid-arrow"/>
  <rect x="628" y="512" width="382" height="380" rx="26" fill="#ecfdf5" stroke="#10b981" stroke-dasharray="11 8" class="panel"/>
  <text x="819" y="552" text-anchor="middle" class="section">Layout &#x7A7A;&#x95F4;&#x8DEF;&#x7531;&#x5206;&#x652F;</text>
  <rect x="667" y="581" width="304" height="62" rx="14" fill="#ffffff" stroke="#34d399" class="inner"/>
  <text x="819" y="619" text-anchor="middle" class="box-title">Layout Router</text>
  <rect x="653" y="676" width="100" height="76" rx="13" fill="#d1fae5" stroke="#34d399" class="inner"/>
  <text x="703" y="707" text-anchor="middle" class="box-title">Depth</text>
  <text x="703" y="732" text-anchor="middle" class="small">Anything</text>
  <rect x="769" y="676" width="100" height="76" rx="13" fill="#d1fae5" stroke="#34d399" class="inner"/>
  <text x="819" y="707" text-anchor="middle" class="box-title">SegFormer</text>
  <text x="819" y="732" text-anchor="middle" class="small">Object / Local</text>
  <rect x="885" y="676" width="100" height="76" rx="13" fill="#d1fae5" stroke="#34d399" class="inner"/>
  <text x="935" y="707" text-anchor="middle" class="box-title">DoG</text>
  <text x="935" y="732" text-anchor="middle" class="small">Texture</text>
  <rect x="667" y="785" width="304" height="68" rx="14" fill="#ffffff" stroke="#34d399" class="inner"/>
  <text x="819" y="814" text-anchor="middle" class="box-title">&#x591A;&#x5C3A;&#x5EA6;&#x7A7A;&#x95F4;&#x5148;&#x9A8C;&#x56FE;</text>
  <text x="819" y="839" text-anchor="middle" class="small">gamma / beta maps [B,C,H,W]</text>
  <rect x="901" y="526" width="86" height="28" rx="14" fill="#059669"/>
  <text x="944" y="545" text-anchor="middle" class="tiny" fill="#ffffff">S &#x9636;&#x6BB5;</text>
  <path d="M541 711 H667" class="spatial-arrow"/>
  <path d="M541 563 H600 V612 H667" class="dash-arrow"/>
  <text x="590" y="551" text-anchor="middle" class="arrow-label">&#x4EC5;&#x63A7;&#x5236;&#x4E13;&#x5BB6;</text>
  <path d="M819 643 V662" class="spatial-arrow"/>
  <path d="M819 662 H703 V676" class="spatial-arrow"/>
  <path d="M819 662 V676" class="spatial-arrow"/>
  <path d="M819 662 H935 V676" class="spatial-arrow"/>
  <path d="M703 752 V770 H819 V785" class="spatial-arrow"/>
  <path d="M819 752 V785" class="spatial-arrow"/>
  <path d="M935 752 V770 H819" class="spatial-arrow"/>
  <path d="M235 550 H255 V875 H604 V714 H653" class="gray-arrow"/>
  <text x="430" y="868" text-anchor="middle" class="arrow-label">LQ image drives parsing experts</text>
  <rect x="1070" y="120" width="420" height="732" rx="28" fill="#f5f3ff" stroke="#8b5cf6" class="panel"/>
  <text x="1280" y="162" text-anchor="middle" class="section">Prior-guided Restoration UNet</text>
  <rect x="1110" y="201" width="340" height="80" rx="16" fill="#ffffff" stroke="#a78bfa" class="inner"/>
  <text x="1280" y="233" text-anchor="middle" class="box-title">Global Prompt / Time Embedding</text>
  <text x="1280" y="259" text-anchor="middle" class="small">&#x901A;&#x9053;&#x7EA7; scale / shift &#xB7; What to restore</text>
  <rect x="1110" y="318" width="340" height="314" rx="20" fill="#ede9fe" stroke="#8b5cf6" class="inner"/>
  <text x="1280" y="357" text-anchor="middle" class="box-title">Conditional UNet Backbone</text>
  <rect x="1147" y="392" width="74" height="62" rx="11" fill="#c4b5fd"/>
  <text x="1184" y="429" text-anchor="middle" class="body">Down</text>
  <rect x="1243" y="420" width="74" height="62" rx="11" fill="#a78bfa"/>
  <text x="1280" y="457" text-anchor="middle" class="body" fill="#ffffff">Mid</text>
  <rect x="1339" y="392" width="74" height="62" rx="11" fill="#c4b5fd"/>
  <text x="1376" y="429" text-anchor="middle" class="body">Up</text>
  <path d="M1221 423 H1243" class="gray-arrow"/>
  <path d="M1317 451 H1339" class="gray-arrow"/>
  <rect x="1147" y="510" width="266" height="76" rx="13" fill="#ffffff" stroke="#a78bfa" class="inner"/>
  <text x="1280" y="541" text-anchor="middle" class="box-title">Multi-scale Spatial SFT</text>
  <text x="1280" y="567" text-anchor="middle" class="small">Where to restore &#xB7; &#x53EF;&#x9009;&#x4E13;&#x5BB6;&#x6B8B;&#x5DEE;</text>
  <rect x="1110" y="672" width="340" height="76" rx="16" fill="#ffffff" stroke="#a78bfa" class="inner"/>
  <text x="1280" y="703" text-anchor="middle" class="box-title">Image / Residual Prediction Head</text>
  <text x="1280" y="729" text-anchor="middle" class="small">Direct image &#x6216; LQ + residual</text>
  <rect x="1375" y="134" width="92" height="28" rx="14" fill="#7c3aed"/>
  <text x="1421" y="153" text-anchor="middle" class="tiny" fill="#ffffff">&#x6062;&#x590D;&#x4E3B;&#x5E72;</text>
  <path d="M971 388 H1040 V241 H1110" class="solid-arrow"/>
  <text x="1022" y="225" text-anchor="middle" class="arrow-label">deg_context</text>
  <path d="M971 819 H1040 V548 H1147" class="spatial-arrow"/>
  <text x="1018" y="802" text-anchor="middle" class="arrow-label">spatial maps</text>
  <path d="M235 430 H255 V910 H1040 V475 H1110" class="gray-arrow"/>
  <text x="800" y="905" text-anchor="middle" class="arrow-label">LQ restoration input</text>
  <rect x="1545" y="365" width="210" height="220" rx="24" fill="#ffffff" stroke="#64748b" class="panel"/>
  <rect x="1574" y="396" width="152" height="104" rx="14" fill="#dbeafe"/>
  <path d="M1588 484 L1615 449 L1638 470 L1661 432 L1713 484 Z" fill="#60a5fa"/>
  <circle cx="1608" cy="430" r="11" fill="#f8fafc"/>
  <text x="1650" y="535" text-anchor="middle" class="box-title">&#x6062;&#x590D;&#x56FE;&#x50CF;</text>
  <text x="1650" y="561" text-anchor="middle" class="small">Restored HQ</text>
  <path d="M1450 710 H1514 V475 H1545" class="gray-arrow"/>
  <rect x="65" y="944" width="18" height="18" rx="4" fill="#2563eb"/>
  <text x="94" y="958" class="small">&#x5B9E;&#x7EBF;&#xFF1A;&#x5F53;&#x524D;&#x5DF2;&#x5B9E;&#x73B0; / &#x5DF2;&#x9A8C;&#x8BC1;&#x4E3B;&#x5E72;</text>
  <rect x="355" y="944" width="18" height="18" rx="4" fill="#d1fae5" stroke="#059669" stroke-dasharray="5 3"/>
  <text x="384" y="958" class="small">&#x865A;&#x7EBF;&#xFF1A;&#x6700;&#x7EC8;&#x8BBE;&#x8BA1;&#x4E2D;&#x7684; layout &#x7A7A;&#x95F4;&#x4E13;&#x5BB6;</text>
  <text x="1745" y="962" text-anchor="end" class="small">Qwen-IR Method Overview</text>
</svg>
